<svg version="1.1" id="Layer_1" xmlns="http://www.w3.org/2000/svg" xmlns:xlink="http://www.w3.org/1999/xlink" x="0px" y="0px"
	 width="100%" viewBox="0 0 297 267" enable-background="new 0 0 297 267" xml:space="preserve">
<path fill="#095881" opacity="1.000000" stroke="none" 
	d="
M83.000000,268.000000 
	C65.312439,268.000000 47.624878,268.000000 29.509945,267.651917 
	C32.792458,261.914490 36.502342,256.525085 40.212223,251.135712 
	C39.820911,250.813766 39.429596,250.491837 39.038284,250.169891 
	C36.558796,251.900894 34.079311,253.631912 30.298586,256.271362 
	C32.617008,250.977127 34.353184,247.012466 36.188854,242.820618 
	C33.173058,243.314224 31.085596,243.655884 28.999065,243.998779 
	C29.000000,244.000000 29.002352,244.001770 28.978518,243.708160 
	C28.648390,242.941940 28.342096,242.469330 28.038805,241.662964 
	C28.043203,240.884216 28.044596,240.439194 28.363127,239.809830 
	C32.756618,231.648911 31.850151,229.059738 24.979256,228.657257 
	C25.024813,227.875610 25.048668,227.428848 25.361008,226.826874 
	C29.866369,220.652588 36.566727,216.344421 39.205563,207.241379 
	C33.474773,209.773331 29.097958,211.707077 25.434801,213.325516 
	C27.908184,205.710922 30.458656,197.858978 33.134960,189.954803 
	C33.171574,189.932007 33.082352,189.961441 32.606632,189.990814 
	C30.557224,190.442322 28.913906,191.074020 27.221905,191.258041 
	C26.530523,191.333221 25.733740,190.439178 25.056286,189.654449 
	C28.343649,184.819031 31.559631,180.315247 34.775616,175.811447 
	C34.590034,175.515289 34.404457,175.219131 34.218876,174.922974 
	C32.003502,175.819427 29.788128,176.715881 26.237247,178.152756 
	C28.442581,175.318512 29.731359,173.662216 31.283115,171.804153 
	C35.825211,167.669983 40.104324,163.737549 45.275810,158.985062 
	C40.530567,158.985062 36.776489,158.985062 32.624294,158.983032 
	C29.700132,159.508148 27.174093,160.035324 23.482233,160.805786 
	C30.347105,151.803925 38.666893,146.344193 47.808353,141.863770 
	C47.693436,141.353500 47.578514,140.843216 47.463593,140.332947 
	C43.969112,139.893341 40.474636,139.453735 37.137325,138.714935 
	C45.440525,132.622040 53.586552,126.828362 61.408955,121.264854 
	C58.782413,120.764427 55.622070,120.162292 52.461727,119.560158 
	C52.320160,119.116051 52.178593,118.671951 52.037029,118.227844 
	C54.511837,116.841988 56.986645,115.456131 60.039227,113.746727 
	C56.251316,113.091911 53.146660,112.555206 50.268463,112.005119 
	C50.494930,111.991737 50.947758,111.963379 51.264488,111.821655 
	C56.337231,109.310951 61.093246,106.941978 66.589577,104.204254 
	C63.674881,102.800529 61.344223,101.678078 58.334473,100.228577 
	C64.085701,98.679840 69.026939,97.349220 73.984818,96.459213 
	C74.017418,97.784241 74.033379,98.668648 74.128555,99.944687 
	C71.436638,117.551842 74.666428,133.300430 86.765373,146.271683 
	C102.612343,163.261169 130.102310,167.625839 152.343292,156.898727 
	C165.612869,150.498642 174.171646,140.007584 176.538223,125.291367 
	C177.424042,119.782997 176.821304,114.035233 176.934601,107.921074 
	C177.281815,87.655556 165.849792,69.317467 148.476074,61.770584 
	C145.609436,60.525352 142.708832,59.358322 140.007874,57.849915 
	C141.651093,56.008015 142.878845,54.088982 144.627472,53.030178 
	C146.882263,51.664898 149.553955,50.988167 152.029053,50.344505 
	C152.004135,51.114014 151.996292,51.553917 151.716522,52.225334 
	C150.927078,54.401600 150.409546,56.346348 149.892014,58.291096 
	C150.445374,58.576420 150.998734,58.861740 151.552109,59.147064 
	C152.030228,58.384659 152.508347,57.622253 153.340851,56.844875 
	C156.796234,55.552357 159.897263,54.274807 163.293396,53.001934 
	C163.809128,53.476948 164.349579,54.166729 164.200790,54.383598 
	C162.743851,56.506931 161.172028,58.551434 159.632858,60.618340 
	C159.945770,60.813763 160.258698,61.009190 160.571625,61.204613 
	C164.964569,59.304565 169.357513,57.404518 173.750473,55.504471 
	C173.929535,55.866379 174.108597,56.228287 174.287659,56.590195 
	C173.272690,58.484310 172.257736,60.378426 171.396347,61.985920 
	C179.727036,58.948196 187.860001,55.982578 196.458038,53.015976 
	C199.041779,53.003334 201.161209,53.024395 203.278900,52.973080 
	C207.415878,52.872833 211.540787,52.762238 213.779510,57.234634 
	C210.021423,57.777927 206.574570,58.040771 203.437653,58.279984 
	C208.563263,61.160469 213.752441,64.076683 218.941330,67.382782 
	C216.979828,68.837708 215.018631,69.902740 212.480560,71.281052 
	C214.783630,71.925041 216.859482,72.505501 218.992371,73.411659 
	C220.102554,75.175667 222.287766,76.906494 222.005295,77.999664 
	C220.993317,81.916008 223.778580,82.080177 226.200989,83.274658 
	C228.014038,84.406685 229.869095,84.998215 231.155136,86.199112 
	C232.872131,87.802406 235.706787,90.332771 235.318558,91.666618 
	C234.173065,95.602142 236.594543,96.073357 239.000473,97.418938 
	C241.664062,101.869545 243.196426,107.390526 250.133133,106.312668 
	C253.516251,107.778824 256.722351,108.936592 259.990356,110.426514 
	C261.303864,112.271454 262.625519,113.732407 263.791840,115.308342 
	C265.909576,118.169884 267.934875,121.099823 269.999390,124.000610 
	C270.000000,124.000000 270.001221,123.998436 269.634583,123.995255 
	C267.212006,123.007103 265.156006,122.022133 263.100037,121.037163 
	C262.934601,121.240898 262.769196,121.444626 262.603760,121.648361 
	C264.410431,123.770645 266.217133,125.892929 268.134277,128.299316 
	C268.838867,129.380829 269.433014,130.178238 270.067261,131.364685 
	C270.705566,135.648987 271.338226,139.539352 271.891357,143.440994 
	C272.358826,146.738617 272.263672,150.195572 273.237183,153.327194 
	C276.323151,163.253845 277.746246,172.998840 272.884033,182.833801 
	C272.168671,184.280823 272.359528,186.325226 272.551270,188.046432 
	C273.555542,197.062012 275.290344,206.041611 275.607391,215.074570 
	C275.881622,222.887558 274.476318,230.748535 274.051300,238.601166 
	C273.795166,243.333176 274.444702,248.146011 273.862152,252.819687 
	C273.266663,257.597412 273.655243,263.091827 268.676270,266.439178 
	C267.709351,263.925262 266.900696,261.822845 266.092041,259.720459 
	C265.728027,259.834869 265.364014,259.949280 265.000000,260.063721 
	C265.000000,262.709137 265.000000,265.354584 265.000000,268.000000 
	C240.979111,268.000000 216.958206,268.000000 192.678406,267.730896 
	C196.636902,265.129333 200.961044,262.969086 205.052414,260.433258 
	C219.556061,251.443939 233.101898,241.319153 242.027176,226.332596 
	C244.542038,222.109879 246.216660,217.386780 248.276672,212.893204 
	C193.307083,260.664520 134.071976,277.152649 65.591019,243.345291 
	C66.990273,247.924255 68.324524,252.623367 71.079315,256.240692 
	C74.427261,260.636902 78.972641,264.121185 83.000000,268.000000 
M232.336151,146.101608 
	C225.460983,150.586945 218.550735,155.020203 211.743774,159.606796 
	C210.552429,160.409500 209.795288,161.856628 208.263107,163.241821 
	C207.215515,163.908951 206.167923,164.576080 204.431305,165.089539 
	C203.119659,166.059982 201.894714,167.185455 200.482117,167.975403 
	C192.054321,172.688187 183.583237,177.323578 174.677139,182.239227 
	C174.506516,182.262161 174.335892,182.285110 173.413208,181.983902 
	C162.188782,185.302429 150.902573,188.233627 139.043716,187.950180 
	C138.056107,187.926590 137.052963,188.553528 135.246490,188.974701 
	C133.886688,188.994461 132.526886,189.014221 130.755768,188.276169 
	C127.157013,187.902252 123.558250,187.528351 119.154175,187.010544 
	C117.792702,186.962738 116.431236,186.914932 114.823616,186.259674 
	C114.201889,186.224915 113.580154,186.190155 112.335098,186.009262 
	C111.910599,185.968307 111.486107,185.927353 110.694160,185.181854 
	C106.399712,184.233124 102.105270,183.284409 97.099869,182.262161 
	C96.397682,182.130524 95.695503,181.998886 94.757149,181.192505 
	C89.976326,178.788040 85.328430,176.053452 80.381508,174.061508 
	C73.996559,171.490509 67.372452,169.513458 59.969547,167.235596 
	C48.416901,166.485443 43.532459,170.011887 43.209595,181.420410 
	C42.767895,197.027985 46.838303,211.567566 57.001465,224.713654 
	C61.403278,229.157654 65.604050,233.830185 70.289230,237.952087 
	C72.738976,240.107300 76.040039,241.294846 79.597916,243.197830 
	C80.695358,243.533661 81.792809,243.869476 83.060974,244.909119 
	C93.693611,250.379059 104.781227,254.322296 117.498344,255.265945 
	C118.655075,255.463562 119.811798,255.661179 121.844749,255.987427 
	C122.841240,256.007507 123.879135,255.851624 124.827812,256.074890 
	C134.346527,258.315002 143.664383,256.176178 153.732849,254.891541 
	C154.864471,254.584427 155.996109,254.277298 157.976700,253.988235 
	C165.325165,252.160370 172.728134,250.520798 179.996658,248.416779 
	C183.132675,247.509003 185.990631,245.640518 189.689224,244.138184 
	C190.804688,243.729156 191.920151,243.320129 193.742615,242.736313 
	C200.451508,239.037796 207.213745,235.431122 213.835831,231.583206 
	C215.752335,230.469604 217.266602,228.663803 219.572128,226.933243 
	C220.411011,226.260727 221.249908,225.588196 222.782318,224.972290 
	C227.883926,219.504639 233.199310,214.215881 237.991516,208.489319 
	C240.190811,205.861237 241.362778,202.373474 243.638580,198.943390 
	C250.256958,187.509811 253.711624,175.171158 253.979538,161.980911 
	C254.095642,156.264175 252.175171,151.239212 247.879593,146.441437 
	C244.354797,143.219498 238.151093,142.950287 232.336151,146.101608 
M187.308868,119.126923 
	C181.748505,134.861252 191.340912,150.109528 207.891235,148.702423 
	C207.721420,150.418839 207.551605,152.135254 207.414764,153.518295 
	C215.539124,142.617493 226.241867,137.024780 238.738983,133.095627 
	C235.100845,133.366089 231.462692,133.636551 227.915604,133.013855 
	C227.242157,128.143814 226.568710,123.273766 225.971008,117.571007 
	C224.821426,114.717575 224.237320,111.427597 222.427795,109.083649 
	C212.816422,96.633820 195.038574,103.306435 189.270554,111.741333 
	C188.037933,113.543861 187.899963,116.094933 187.308868,119.126923 
M248.423889,210.486649 
	C248.423889,210.486649 248.519470,210.431915 248.423889,210.486649 
z"/>
<path fill="#D6EEF3" opacity="1.000000" stroke="none" 
	d="
M1.000000,85.000000 
	C1.000000,57.025700 1.000000,29.051395 1.000000,1.038547 
	C99.883430,1.038547 198.766876,1.038547 298.000000,1.038547 
	C298.000000,32.686703 298.000000,64.374695 297.597534,96.629929 
	C286.885681,94.841568 275.646301,94.933327 267.822937,86.035774 
	C267.640533,85.828323 267.461304,85.618065 267.285522,85.414818 
	C270.244659,82.007950 266.846313,79.710030 266.038025,76.696739 
	C270.900665,72.338013 276.136871,68.757599 280.153595,64.120811 
	C287.527374,55.608807 292.694977,45.904140 291.921570,33.586769 
	C290.684296,26.360144 289.678528,19.499899 287.885376,12.852017 
	C287.244141,10.474607 284.699280,8.610657 283.023254,6.512352 
	C281.606995,8.419253 279.956818,10.195977 278.811493,12.253681 
	C269.783661,28.473230 258.673859,42.640408 240.998520,50.644680 
	C237.831787,50.375675 235.082016,50.337402 232.234344,50.211708 
	C232.136429,50.124287 231.942688,49.947094 231.954987,49.591087 
	C233.372284,47.511818 234.777298,45.788555 236.759720,43.357071 
	C231.063232,42.671974 226.074158,42.071953 221.085068,41.471931 
	C220.936234,41.128944 220.787399,40.785957 220.638550,40.442974 
	C223.682114,38.993164 226.725662,37.543358 229.574692,36.186211 
	C223.068848,31.659765 215.153564,31.615076 206.382339,32.402271 
	C212.254318,25.726877 218.499039,23.813593 226.115784,25.920467 
	C222.873322,19.565744 215.521149,17.224876 204.743362,19.899340 
	C197.153168,21.782810 189.860718,24.866182 182.325043,27.451645 
	C184.985016,19.959410 190.415512,15.316216 198.048431,12.752722 
	C182.555710,11.234160 169.712143,17.287077 157.484741,26.812834 
	C157.821045,24.885298 157.991119,23.910507 158.478668,21.116142 
	C149.814011,24.475805 142.310455,27.385258 134.943024,30.241930 
	C134.792770,28.686302 134.561356,26.290392 134.302917,23.614687 
	C132.469421,24.014894 130.956161,24.140514 129.604919,24.675417 
	C123.601997,27.051729 117.678017,29.630728 111.646049,31.927847 
	C110.366714,32.415051 107.892326,35.390690 107.697556,30.735241 
	C107.663368,30.142923 107.396210,30.031445 106.664619,30.114140 
	C103.064857,31.887926 99.817017,33.737152 96.546555,35.599255 
	C92.618172,30.419954 87.716331,27.169676 80.616257,27.629070 
	C80.520554,28.219244 80.759331,28.733269 81.110260,29.587879 
	C84.653931,36.765896 79.691017,49.227932 72.148705,52.313377 
	C71.966515,50.939426 71.793617,49.635555 71.539726,47.720879 
	C68.063072,50.013226 65.182182,51.912746 62.052650,53.553673 
	C58.262844,51.486233 54.559307,49.935108 51.208595,47.823986 
	C36.585060,38.610424 26.346292,25.531231 18.785418,10.211762 
	C16.962408,6.518074 15.049739,5.063716 11.671850,9.141746 
	C9.618140,15.882185 7.893990,22.465324 6.103845,29.497189 
	C7.037804,36.360634 6.990652,43.171848 9.240450,49.113300 
	C15.210954,64.880707 27.064346,75.349426 42.161568,82.546143 
	C41.580555,83.948875 41.229656,85.090508 40.595860,86.044113 
	C39.666027,87.443161 38.533844,88.707733 37.487877,90.029594 
	C36.334572,88.882668 35.181263,87.735741 33.873188,86.434906 
	C32.042461,90.079010 29.058393,90.467865 25.212370,89.625137 
	C17.188986,87.867073 9.076109,86.517433 1.000000,85.000000 
z"/>
<path fill="#083655" opacity="1.000000" stroke="none" 
	d="
M36.980156,139.014145 
	C40.474636,139.453735 43.969112,139.893341 47.463593,140.332947 
	C47.578514,140.843216 47.693436,141.353500 47.808353,141.863770 
	C38.666893,146.344193 30.347105,151.803925 23.482233,160.805786 
	C27.174093,160.035324 29.700132,159.508148 32.483467,159.294525 
	C29.857944,163.418121 26.975124,167.228165 23.827250,171.388519 
	C26.782541,171.642166 28.901340,171.824036 31.020138,172.005890 
	C29.731359,173.662216 28.442581,175.318512 26.237247,178.152756 
	C29.788128,176.715881 32.003502,175.819427 34.218876,174.922974 
	C34.404457,175.219131 34.590034,175.515289 34.775616,175.811447 
	C31.559631,180.315247 28.343649,184.819031 24.713970,189.701080 
	C22.187134,192.309555 20.073994,194.539749 17.960854,196.769958 
	C18.205582,197.004044 18.450308,197.238129 18.695036,197.472198 
	C20.885283,196.609283 23.075529,195.746368 25.265774,194.883438 
	C25.638474,195.323212 26.011171,195.762970 26.383869,196.202744 
	C23.155622,202.476593 19.927374,208.750443 16.140287,216.110367 
	C19.354303,215.470245 20.995033,215.143478 23.454084,214.653717 
	C21.497608,220.522751 19.750780,225.762863 17.879755,231.052185 
	C17.836046,231.066299 17.916536,231.031189 18.296976,230.845810 
	C20.755455,229.457718 22.913986,228.219894 25.072521,226.982071 
	C25.048668,227.428848 25.024813,227.875610 24.702909,228.896713 
	C22.602718,233.980347 20.800579,238.489655 18.806461,243.121323 
	C18.626575,243.570892 18.638664,243.898117 18.650753,244.225327 
	C18.767756,243.817490 18.884756,243.409668 19.377098,242.999084 
	C22.516956,241.995621 25.281473,240.994904 28.045990,239.994186 
	C28.044596,240.439194 28.043203,240.884216 27.761311,241.864197 
	C25.506855,245.626144 23.428862,248.794907 21.582752,252.093445 
	C18.640678,257.350220 15.852976,262.693359 12.999998,268.000000 
	C9.019329,268.000000 5.038658,268.000000 1.000000,268.000000 
	C1.000000,241.979126 1.000000,215.958221 1.263638,189.267334 
	C5.659179,183.085434 9.791081,177.573502 14.198374,171.845749 
	C14.487902,167.082428 10.972429,168.286316 8.630073,168.388779 
	C6.068123,168.500824 3.541830,169.428055 0.999999,170.000000 
	C1.000000,168.933334 1.000000,167.866653 1.317643,166.282928 
	C2.668453,164.278030 3.788614,162.842453 4.719408,161.293106 
	C8.339987,155.266495 11.900465,149.203766 15.616215,142.890869 
	C17.453234,136.263229 15.539436,133.579361 8.601688,132.627594 
	C5.907146,132.208923 3.453573,132.104462 1.000000,132.000000 
	C1.000000,130.611115 1.000000,129.222214 1.361443,127.364418 
	C8.120820,122.366188 17.178190,123.841202 22.865973,117.922409 
	C23.134493,119.282028 23.337206,120.279221 23.807581,122.593086 
	C26.392841,119.638939 27.952486,117.149040 30.146767,115.507446 
	C33.878353,112.715782 38.009373,110.458031 42.070290,108.349197 
	C43.596275,109.148651 45.051441,109.502373 46.445522,110.020462 
	C47.975624,110.589104 49.449425,111.309250 50.947758,111.963379 
	C50.947758,111.963379 50.494930,111.991737 49.957687,112.147339 
	C44.789799,115.541405 40.159157,118.779877 35.333576,122.154678 
	C40.865490,122.808304 45.730659,123.383148 51.540440,124.069603 
	C44.573738,129.343887 38.965145,133.589996 33.356548,137.836090 
	C33.590019,138.228775 33.823494,138.621460 34.056965,139.014145 
	C35.031361,139.014145 36.005760,139.014145 36.980156,139.014145 
M16.526342,199.670715 
	C16.598213,199.737869 16.670086,199.805023 16.526342,199.670715 
M16.428495,217.481049 
	C16.428495,217.481049 16.521584,217.427673 16.428495,217.481049 
z"/>
<path fill="#0C446D" opacity="1.000000" stroke="none" 
	d="
M265.468658,268.000000 
	C265.000000,265.354584 265.000000,262.709137 265.000000,260.063721 
	C265.364014,259.949280 265.728027,259.834869 266.092041,259.720459 
	C266.900696,261.822845 267.709351,263.925262 268.676270,266.439178 
	C273.655243,263.091827 273.266663,257.597412 273.862152,252.819687 
	C274.444702,248.146011 273.795166,243.333176 274.051300,238.601166 
	C274.476318,230.748535 275.881622,222.887558 275.607391,215.074570 
	C275.290344,206.041611 273.555542,197.062012 272.551270,188.046432 
	C272.359528,186.325226 272.168671,184.280823 272.884033,182.833801 
	C277.746246,172.998840 276.323151,163.253845 273.237183,153.327194 
	C272.263672,150.195572 272.358826,146.738617 271.891357,143.440994 
	C271.338226,139.539352 270.705566,135.648987 270.434448,131.376465 
	C272.756622,132.080643 275.036133,132.838715 276.697235,134.299850 
	C283.664490,140.428314 287.522308,148.460480 290.027832,157.229385 
	C290.665497,159.461105 291.297791,161.699005 291.799927,163.963470 
	C292.295868,166.200165 292.623993,168.474060 293.025726,170.731644 
	C289.993805,163.944016 284.823120,159.793839 279.293304,156.536285 
	C282.492371,164.550949 286.894623,172.361206 288.598389,180.721436 
	C290.432983,189.723404 290.603210,199.044235 295.255981,207.316650 
	C296.000397,208.640198 297.076965,209.776917 298.000000,211.000000 
	C298.000000,229.907166 298.000000,248.814331 298.000000,268.000000 
	C287.314056,268.000000 276.625671,268.000000 265.468658,268.000000 
M276.489136,155.568741 
	C276.489136,155.568741 276.439117,155.478745 276.489136,155.568741 
z"/>
<path fill="#0C446D" opacity="1.000000" stroke="none" 
	d="
M83.468658,268.000000 
	C78.972641,264.121185 74.427261,260.636902 71.079315,256.240692 
	C68.324524,252.623367 66.990273,247.924255 65.591019,243.345291 
	C134.071976,277.152649 193.307083,260.664520 248.276672,212.893204 
	C246.216660,217.386780 244.542038,222.109879 242.027176,226.332596 
	C233.101898,241.319153 219.556061,251.443939 205.052414,260.433258 
	C200.961044,262.969086 196.636902,265.129333 192.209747,267.730896 
	C155.979111,268.000000 119.958214,268.000000 83.468658,268.000000 
z"/>
<path fill="#093756" opacity="1.000000" stroke="none" 
	d="
M1.000000,85.458069 
	C9.076109,86.517433 17.188986,87.867073 25.212370,89.625137 
	C29.058393,90.467865 32.042461,90.079010 33.873188,86.434906 
	C35.181263,87.735741 36.334572,88.882668 37.487877,90.029594 
	C38.533844,88.707733 39.666027,87.443161 40.595860,86.044113 
	C41.229656,85.090508 41.580555,83.948875 42.451824,82.724533 
	C49.850811,84.795433 56.644325,90.144783 64.550735,84.087357 
	C65.204025,85.770142 66.237892,88.430283 65.712753,88.785484 
	C64.142494,89.847565 61.961853,90.007202 59.992393,90.526367 
	C60.854370,91.524483 61.657185,92.454094 62.731628,93.698227 
	C57.914551,95.893623 53.476688,97.916183 48.667427,100.000565 
	C39.851543,104.729248 31.407064,109.396126 22.609112,114.068176 
	C15.777290,118.225395 8.715217,120.283936 1.000000,120.000000 
	C1.000000,115.643097 1.000000,111.286201 1.399607,106.463135 
	C7.032346,104.131752 12.265478,102.266533 17.498610,100.401314 
	C17.447014,99.638512 17.395418,98.875710 17.343822,98.112907 
	C11.895882,97.408607 6.447941,96.704300 1.000000,96.000000 
	C1.000000,92.638710 1.000000,89.277428 1.000000,85.458069 
z"/>
<path fill="#093756" opacity="1.000000" stroke="none" 
	d="
M265.861603,76.998611 
	C266.846313,79.710030 270.244659,82.007950 267.285522,85.414818 
	C267.461304,85.618065 267.640533,85.828323 267.822937,86.035774 
	C275.646301,94.933327 286.885681,94.841568 297.597534,97.098587 
	C298.000000,98.714355 298.000000,100.428719 297.622437,102.521179 
	C293.515411,101.830666 289.785980,100.762047 286.056549,99.693428 
	C288.840942,105.420433 291.894897,110.314072 298.000000,112.000000 
	C298.000000,114.041664 298.000000,116.083336 297.624634,118.594376 
	C292.871368,116.725746 288.493530,114.387741 283.805786,111.898819 
	C278.385468,107.375832 273.030457,103.550911 265.795502,102.970428 
	C268.488800,107.052773 270.766022,110.504501 272.668274,113.924301 
	C268.171692,112.626381 264.050079,111.360374 259.928467,110.094368 
	C256.722351,108.936592 253.516251,107.778824 250.537994,106.313423 
	C252.866013,106.233421 254.966141,106.461044 257.830994,106.771553 
	C252.570267,100.490517 245.955826,98.399689 238.937836,97.077332 
	C236.594543,96.073357 234.173065,95.602142 235.318558,91.666618 
	C235.706787,90.332771 232.872131,87.802406 231.155136,86.199112 
	C229.869095,84.998215 228.014038,84.406685 226.499512,82.996078 
	C230.793518,81.999870 235.000305,81.551414 239.267746,81.432281 
	C240.440826,83.522217 241.553253,85.282822 243.104401,87.737732 
	C250.797501,84.107361 258.329559,80.552986 265.861603,76.998611 
z"/>
<path fill="#083756" opacity="1.000000" stroke="none" 
	d="
M298.000000,210.531342 
	C297.076965,209.776917 296.000397,208.640198 295.255981,207.316650 
	C290.603210,199.044235 290.432983,189.723404 288.598389,180.721436 
	C286.894623,172.361206 282.492371,164.550949 279.293304,156.536285 
	C284.823120,159.793839 289.993805,163.944016 293.025726,170.731644 
	C292.623993,168.474060 292.295868,166.200165 291.799927,163.963470 
	C291.297791,161.699005 290.665497,159.461105 290.027832,157.229385 
	C287.522308,148.460480 283.664490,140.428314 276.697235,134.299850 
	C275.036133,132.838715 272.756622,132.080643 270.394348,130.987427 
	C269.433014,130.178238 268.838867,129.380829 268.577759,128.292694 
	C273.776825,128.787094 278.642883,129.572220 284.026794,130.440903 
	C284.026794,129.429718 284.026794,127.704666 284.327271,126.145691 
	C285.846863,127.094170 287.009674,127.987511 288.295074,128.639175 
	C293.024597,131.036926 294.209381,130.262085 294.381805,125.046967 
	C295.798859,126.410362 296.899414,127.705177 298.000000,129.000000 
	C298.000000,156.020889 298.000000,183.041794 298.000000,210.531342 
z"/>
<path fill="#0C446D" opacity="1.000000" stroke="none" 
	d="
M13.333331,268.000000 
	C15.852976,262.693359 18.640678,257.350220 21.582752,252.093445 
	C23.428862,248.794907 25.506855,245.626144 27.758305,242.197937 
	C28.342096,242.469330 28.648390,242.941940 28.854166,243.759644 
	C28.835144,244.069000 28.916639,244.033279 28.998133,243.997559 
	C31.085596,243.655884 33.173058,243.314224 36.188854,242.820618 
	C34.353184,247.012466 32.617008,250.977127 30.298586,256.271362 
	C34.079311,253.631912 36.558796,251.900894 39.038284,250.169891 
	C39.429596,250.491837 39.820911,250.813766 40.212223,251.135712 
	C36.502342,256.525085 32.792458,261.914490 29.041286,267.651917 
	C27.285643,268.000000 25.571283,268.000000 23.466618,267.651672 
	C24.675867,264.811401 26.275427,262.319427 27.874985,259.827423 
	C27.515133,259.504761 27.155279,259.182068 26.795427,258.859375 
	C22.457909,261.328674 17.317135,262.654480 15.000000,268.000000 
	C14.555555,268.000000 14.111111,268.000000 13.333331,268.000000 
z"/>
<path fill="#D0EAF0" opacity="1.000000" stroke="none" 
	d="
M15.483304,143.154480 
	C11.900465,149.203766 8.339987,155.266495 4.719408,161.293106 
	C3.788614,162.842453 2.668453,164.278030 1.317643,165.882935 
	C1.000000,160.645065 1.000000,155.290146 1.360801,149.617889 
	C6.308836,147.251877 10.896070,145.203186 15.483304,143.154480 
z"/>
<path fill="#105C84" opacity="1.000000" stroke="none" 
	d="
M15.616215,142.890869 
	C10.896070,145.203186 6.308836,147.251877 1.360801,149.150284 
	C1.000000,148.555557 1.000000,148.111099 1.322267,147.182648 
	C4.043909,142.113037 6.443283,137.527405 8.842657,132.941788 
	C15.539436,133.579361 17.453234,136.263229 15.616215,142.890869 
z"/>
<path fill="#08567E" opacity="1.000000" stroke="none" 
	d="
M1.000000,96.454109 
	C6.447941,96.704300 11.895882,97.408607 17.343822,98.112907 
	C17.395418,98.875710 17.447014,99.638512 17.498610,100.401314 
	C12.265478,102.266533 7.032346,104.131752 1.399607,105.998489 
	C1.000000,102.969406 1.000000,99.938812 1.000000,96.454109 
z"/>
<path fill="#D0E9EF" opacity="1.000000" stroke="none" 
	d="
M1.000000,120.437500 
	C8.715217,120.283936 15.777290,118.225395 22.632153,114.419754 
	C22.939165,115.697426 22.869665,116.628700 22.800165,117.559967 
	C17.178190,123.841202 8.120820,122.366188 1.361443,126.947754 
	C1.000000,124.958336 1.000000,122.916664 1.000000,120.437500 
z"/>
<path fill="#CAE5EC" opacity="1.000000" stroke="none" 
	d="
M13.922983,172.061569 
	C9.791081,177.573502 5.659179,183.085434 1.263638,188.798676 
	C1.000000,185.307098 1.000000,181.614182 1.341494,177.364288 
	C5.762986,175.225388 9.842983,173.643478 13.922983,172.061569 
z"/>
<path fill="#08557E" opacity="1.000000" stroke="none" 
	d="
M298.000000,111.550018 
	C291.894897,110.314072 288.840942,105.420433 286.056549,99.693428 
	C289.785980,100.762047 293.515411,101.830666 297.622437,102.949646 
	C298.000000,105.700012 298.000000,108.400032 298.000000,111.550018 
z"/>
<path fill="#CBE6EC" opacity="1.000000" stroke="none" 
	d="
M298.000000,128.545898 
	C296.899414,127.705177 295.798859,126.410362 294.366211,125.040932 
	C294.034180,124.966324 294.010345,124.946014 293.966675,124.644691 
	C293.287781,123.870125 292.652496,123.396889 291.852936,122.632660 
	C289.164307,118.911034 286.639984,115.480385 284.115662,112.049728 
	C288.493530,114.387741 292.871368,116.725746 297.624634,119.031876 
	C298.000000,122.030594 298.000000,125.061188 298.000000,128.545898 
z"/>
<path fill="#0E5A81" opacity="1.000000" stroke="none" 
	d="
M14.198372,171.845749 
	C9.842983,173.643478 5.762986,175.225388 1.341494,176.903656 
	C1.000000,174.958328 1.000000,172.916672 0.999999,170.437500 
	C3.541830,169.428055 6.068123,168.500824 8.630073,168.388779 
	C10.972429,168.286316 14.487902,167.082428 14.198372,171.845749 
z"/>
<path fill="#D1EAF0" opacity="1.000000" stroke="none" 
	d="
M8.601686,132.627594 
	C6.443283,137.527405 4.043909,142.113037 1.322267,146.849335 
	C1.000000,142.310745 1.000000,137.621490 1.000000,132.466125 
	C3.453573,132.104462 5.907146,132.208923 8.601686,132.627594 
z"/>
<path fill="#083655" opacity="1.000000" stroke="none" 
	d="
M15.444163,268.000000 
	C17.317135,262.654480 22.457909,261.328674 26.795427,258.859375 
	C27.155279,259.182068 27.515133,259.504761 27.874985,259.827423 
	C26.275427,262.319427 24.675867,264.811401 23.038155,267.651672 
	C20.629442,268.000000 18.258884,268.000000 15.444163,268.000000 
z"/>
<path fill="#090F12" opacity="1.000000" stroke="none" 
	d="
M222.088806,224.915680 
	C221.249908,225.588196 220.411011,226.260727 218.931488,226.866333 
	C217.265854,224.405014 216.240875,222.010590 215.144470,219.284912 
	C214.673660,218.237000 214.328781,217.482910 213.866089,216.809784 
	C210.877930,212.462601 207.590561,208.417969 201.485794,209.733078 
	C195.423050,211.039108 192.253342,215.465530 191.294296,221.163116 
	C190.648499,224.999756 191.171738,229.033173 191.096863,233.385300 
	C191.693039,236.831726 192.364334,239.871429 193.035614,242.911102 
	C191.920151,243.320129 190.804688,243.729156 188.982025,243.955200 
	C187.607193,241.038589 186.939560,238.304977 186.237061,235.201950 
	C185.644699,233.099716 185.238342,231.299515 184.501480,229.646652 
	C182.274551,224.651459 179.628265,220.038544 173.179169,219.957397 
	C167.231705,219.882538 161.721603,223.454025 159.850082,230.003708 
	C158.283951,235.484695 158.118011,241.365768 157.205505,247.423645 
	C157.095200,249.841812 157.111465,251.905991 157.127731,253.970169 
	C155.996109,254.277298 154.864471,254.584427 153.376251,254.471375 
	C152.936188,252.686890 152.852722,251.322556 152.810822,249.523209 
	C152.617752,245.784348 152.488266,242.468994 152.128098,239.178894 
	C151.188599,230.596649 147.398056,226.101486 140.532455,225.239639 
	C132.637680,224.248596 125.584152,228.502548 123.212982,236.248749 
	C122.063690,240.003220 121.864563,244.048569 121.127495,248.393494 
	C121.002663,251.169434 120.985596,253.514114 120.968521,255.858795 
	C119.811798,255.661179 118.655075,255.463562 117.239044,254.691452 
	C117.030411,251.002945 117.081070,247.888931 117.154480,244.324966 
	C117.117493,240.900146 117.151825,237.919830 116.979607,234.951492 
	C116.536682,227.316940 112.734909,223.127045 105.275093,221.898590 
	C95.331932,220.261185 89.081886,224.265640 84.605453,235.107849 
	C83.799141,238.268021 83.344696,241.236649 82.890251,244.205292 
	C81.792809,243.869476 80.695358,243.533661 79.424530,242.707031 
	C79.948204,238.799301 80.645256,235.382339 81.443604,231.526825 
	C81.365860,227.138290 81.555130,223.128357 80.924049,219.251984 
	C79.900101,212.962418 76.521477,209.617828 71.638672,209.185730 
	C65.263275,208.621552 61.275238,211.206100 58.444870,217.808945 
	C57.719219,220.051208 57.282482,222.033585 56.845749,224.015961 
	C46.838303,211.567566 42.767895,197.027985 43.209595,181.420410 
	C43.532459,170.011887 48.416901,166.485443 60.466530,167.644562 
	C60.774010,170.381653 60.584511,172.709808 60.351303,175.471771 
	C60.453121,178.701355 60.338749,181.540268 60.794357,184.284561 
	C62.016876,191.648178 66.125252,196.860901 73.535934,198.457474 
	C80.619995,199.983658 85.979958,196.673767 90.301605,190.762848 
	C92.074409,187.686676 93.533867,184.776962 94.993332,181.867249 
	C95.695503,181.998886 96.397682,182.130524 97.528854,182.698166 
	C98.044418,185.101593 98.131004,187.069000 98.171249,189.428070 
	C99.637077,200.382080 104.449005,205.952042 112.984047,207.019592 
	C120.921516,208.012390 126.345779,204.206802 130.389877,194.872147 
	C130.887543,192.801544 131.027313,190.917770 131.167084,189.033981 
	C132.526886,189.014221 133.886688,188.994461 136.007294,189.122665 
	C136.951447,190.861481 137.134811,192.452347 137.398956,194.371979 
	C142.272919,205.625244 147.187515,208.982330 156.869339,207.945572 
	C165.726242,206.997131 172.019638,200.885315 174.433807,190.937988 
	C174.554596,187.890503 174.359924,185.099274 174.165253,182.308044 
	C174.335892,182.285110 174.506516,182.262161 175.233902,182.266479 
	C176.512863,184.225677 177.235077,186.157639 178.035980,188.425232 
	C178.776321,189.901474 179.364349,191.092972 180.112091,192.173965 
	C183.729874,197.404037 188.384995,200.765869 195.101547,199.787399 
	C201.932343,198.792267 206.358124,194.437698 207.700378,188.074982 
	C208.716370,183.258804 207.866959,178.049088 207.911255,172.647522 
	C207.023300,169.934753 206.071808,167.588974 205.120316,165.243195 
	C206.167923,164.576080 207.215515,163.908951 208.625946,163.516418 
	C209.890488,166.392166 210.792206,168.993332 211.829590,171.892059 
	C212.652206,173.314819 213.292221,174.472061 214.034149,175.559769 
	C217.549240,180.713196 222.185074,183.776993 228.674774,182.940460 
	C235.098495,182.112411 238.999603,178.136215 241.191528,172.298691 
	C243.357285,166.530838 243.725754,160.749084 240.966934,154.646881 
	C239.966446,151.526520 238.942505,148.792221 238.353180,145.969818 
	C241.840225,146.331161 244.892654,146.780594 247.945068,147.230026 
	C252.175171,151.239212 254.095642,156.264175 253.979538,161.980911 
	C253.711624,175.171158 250.256958,187.509811 243.079285,198.989365 
	C242.342941,199.019699 242.165878,199.004074 241.835617,198.683273 
	C235.882706,193.125214 231.305740,192.603271 225.887558,196.683105 
	C220.004807,201.112762 219.176102,207.262711 220.085068,214.405731 
	C220.705383,218.186661 221.397079,221.551163 222.088806,224.915680 
z"/>
<path fill="#093654" opacity="1.000000" stroke="none" 
	d="
M80.950745,27.552923 
	C87.716331,27.169676 92.618172,30.419954 96.546555,35.599255 
	C99.817017,33.737152 103.064857,31.887926 106.725349,30.262613 
	C107.243797,30.678562 107.390160,30.831877 107.577080,30.946470 
	C107.892326,35.390690 110.366714,32.415051 111.646049,31.927847 
	C117.678017,29.630728 123.601997,27.051729 129.604919,24.675417 
	C130.956161,24.140514 132.469421,24.014894 134.302917,23.614687 
	C134.561356,26.290392 134.792770,28.686302 134.943024,30.241930 
	C142.310455,27.385258 149.814011,24.475805 158.478668,21.116142 
	C157.991119,23.910507 157.821045,24.885298 157.484741,26.812834 
	C169.712143,17.287077 182.555710,11.234160 198.048431,12.752722 
	C190.415512,15.316216 184.985016,19.959410 182.325043,27.451645 
	C189.860718,24.866182 197.153168,21.782810 204.743362,19.899340 
	C215.521149,17.224876 222.873322,19.565744 226.115784,25.920467 
	C218.499039,23.813593 212.254318,25.726877 206.382339,32.402271 
	C215.153564,31.615076 223.068848,31.659765 229.574692,36.186211 
	C226.725662,37.543358 223.682114,38.993164 220.638550,40.442974 
	C220.787399,40.785957 220.936234,41.128944 221.085068,41.471931 
	C226.074158,42.071953 231.063232,42.671974 236.759720,43.357071 
	C234.777298,45.788555 233.372284,47.511818 231.717850,49.633717 
	C231.503433,50.279320 231.538452,50.526283 231.573456,50.773254 
	C231.826401,50.615219 232.079330,50.457180 232.332260,50.299137 
	C235.082016,50.337402 237.831787,50.375675 240.662308,50.880722 
	C236.223892,53.411018 231.704727,55.474533 227.090652,57.581379 
	C231.442337,58.975830 236.618317,60.634430 242.754089,62.600578 
	C237.776337,63.875336 233.818024,64.889023 229.859711,65.902710 
	C229.943619,66.327545 230.027512,66.752388 230.111420,67.177223 
	C233.667419,67.177223 237.223419,67.177223 240.962509,67.177223 
	C238.729553,72.112503 243.528488,72.590050 245.134796,75.284042 
	C243.003036,76.394707 240.823715,77.195404 238.299301,77.927887 
	C231.614594,76.268433 225.274963,74.677193 218.935349,73.085953 
	C216.859482,72.505501 214.783630,71.925041 212.480560,71.281052 
	C215.018631,69.902740 216.979828,68.837708 219.347992,67.385422 
	C221.737335,67.117722 223.719696,67.237282 226.618347,67.412102 
	C223.304688,61.861801 219.530151,58.435051 214.090744,56.954189 
	C211.540787,52.762238 207.415878,52.872833 203.278900,52.973080 
	C201.161209,53.024395 199.041779,53.003334 196.596375,52.705112 
	C199.817841,48.357819 203.366058,44.320400 207.126801,40.041168 
	C195.696777,41.771114 185.803970,46.892250 176.560608,53.628269 
	C176.166168,53.269638 175.771729,52.911007 175.377289,52.552372 
	C176.709106,48.874664 178.040924,45.196957 179.479752,41.223721 
	C172.389114,43.354408 167.092682,47.329597 162.998276,52.997257 
	C159.897263,54.274807 156.796234,55.552357 153.346466,56.474701 
	C152.661285,54.744274 152.324860,53.369049 151.988434,51.993820 
	C151.996292,51.553917 152.004135,51.114014 152.303238,50.191483 
	C153.322708,47.362595 154.050903,45.016342 154.779114,42.670086 
	C154.483917,42.419659 154.188736,42.169228 153.893539,41.918800 
	C148.648392,45.633396 143.403229,49.347992 137.953110,53.207741 
	C134.444977,47.460037 134.769928,42.025085 137.520645,35.346725 
	C127.864220,39.773598 122.841476,46.868717 116.647896,52.967331 
	C113.508759,51.527988 110.723892,50.138756 107.061707,48.311867 
	C107.061707,52.463665 107.061707,55.236004 106.751480,57.862473 
	C103.552345,53.212536 100.663445,48.708473 97.618706,43.961441 
	C93.656738,47.861706 90.257637,52.748425 88.619202,58.951729 
	C87.428001,59.097374 86.570930,59.231598 85.641235,59.377197 
	C86.231392,60.838593 86.656586,61.891502 87.054977,63.393623 
	C87.014206,66.222672 87.000237,68.602509 86.574158,70.990166 
	C84.792564,70.976128 83.423088,70.954262 81.993515,70.582428 
	C80.172638,66.863190 78.411858,63.493908 76.654121,60.130463 
	C75.904762,61.234123 74.905769,62.705444 73.541328,64.086227 
	C65.399208,62.126659 58.233025,59.092453 51.789272,52.842110 
	C55.826130,53.214672 59.063713,53.513470 62.301300,53.812267 
	C65.182182,51.912746 68.063072,50.013226 71.539726,47.720879 
	C71.793617,49.635555 71.966515,50.939426 72.148705,52.313377 
	C79.691017,49.227932 84.653931,36.765896 81.103729,29.163929 
	C80.973602,28.117233 80.962173,27.835077 80.950745,27.552923 
M156.567856,41.514519 
	C156.567856,41.514519 156.474731,41.565315 156.567856,41.514519 
M138.511520,35.425354 
	C138.511520,35.425354 138.566086,35.521214 138.511520,35.425354 
M140.567291,34.513866 
	C140.567291,34.513866 140.478973,34.562031 140.567291,34.513866 
z"/>
<path fill="#D4EBE6" opacity="1.000000" stroke="none" 
	d="
M176.897263,108.396622 
	C176.821304,114.035233 177.424042,119.782997 176.538223,125.291367 
	C174.171646,140.007584 165.612869,150.498642 152.343292,156.898727 
	C130.102310,167.625839 102.612343,163.261169 86.765373,146.271683 
	C74.666428,133.300430 71.436638,117.551842 74.401665,99.656403 
	C75.910408,95.751984 76.865852,92.318359 78.600075,89.337860 
	C87.903557,73.348488 112.111282,61.918327 130.425629,64.459908 
	C145.672791,66.575821 159.516449,71.477310 167.534515,85.629356 
	C171.547791,92.712860 173.831375,100.776360 176.897263,108.396622 
M86.004097,96.749786 
	C81.879631,114.071823 89.958916,141.018753 111.969582,148.153534 
	C133.163757,155.023636 149.399734,150.363007 164.457901,135.503464 
	C176.211853,123.904549 175.175400,102.245331 165.990631,87.611412 
	C158.827026,76.197784 147.740295,70.407593 134.706528,68.431656 
	C114.395058,65.352417 92.362549,73.493484 86.004097,96.749786 
z"/>
<path fill="#0A293E" opacity="1.000000" stroke="none" 
	d="
M176.934601,107.921074 
	C173.831375,100.776360 171.547791,92.712860 167.534515,85.629356 
	C159.516449,71.477310 145.672791,66.575821 130.425629,64.459908 
	C112.111282,61.918327 87.903557,73.348488 78.600075,89.337860 
	C76.865852,92.318359 75.910408,95.751984 74.322449,99.264778 
	C74.033379,98.668648 74.017418,97.784241 74.031998,96.139969 
	C74.345779,94.572845 74.629013,93.765587 74.951950,92.580490 
	C75.358711,90.473740 75.725769,88.744835 76.350060,86.799347 
	C78.409172,83.410309 80.211060,80.237839 82.307053,76.910583 
	C84.393997,75.163269 86.186844,73.570755 88.270065,71.845993 
	C89.707962,70.483795 90.855484,69.253860 92.346741,67.969070 
	C95.157616,66.286057 97.624763,64.657906 100.444504,62.981346 
	C103.555229,61.646759 106.313354,60.360584 109.450562,59.004608 
	C112.882843,58.282124 115.936050,57.629444 119.431473,56.984161 
	C121.938583,56.965244 124.003471,56.938934 126.493965,56.941734 
	C128.907578,57.034679 130.895584,57.098522 133.195282,57.401611 
	C135.612610,57.812286 137.718262,57.983719 139.823914,58.155151 
	C142.708832,59.358322 145.609436,60.525352 148.476074,61.770584 
	C165.849792,69.317467 177.281815,87.655556 176.934601,107.921074 
z"/>
<path fill="#0D446B" opacity="1.000000" stroke="none" 
	d="
M74.912247,92.958328 
	C74.629013,93.765587 74.345779,94.572845 74.015366,95.699356 
	C69.026939,97.349220 64.085701,98.679840 58.334473,100.228577 
	C61.344223,101.678078 63.674881,102.800529 66.589577,104.204254 
	C61.093246,106.941978 56.337231,109.310951 51.264488,111.821655 
	C49.449425,111.309250 47.975624,110.589104 46.445522,110.020462 
	C45.051441,109.502373 43.596275,109.148651 42.077442,108.355194 
	C41.986851,107.987915 41.977676,107.974434 42.334373,107.941414 
	C46.377464,106.010284 50.063866,104.112175 54.683006,101.733803 
	C52.382061,100.884933 51.188435,100.444572 49.755585,99.991188 
	C49.516361,99.978165 49.038830,99.938751 49.038830,99.938751 
	C53.476688,97.916183 57.914551,95.893623 62.731628,93.698227 
	C61.657185,92.454094 60.854370,91.524483 59.992393,90.526367 
	C61.961853,90.007202 64.142494,89.847565 65.712753,88.785484 
	C66.237892,88.430283 65.204025,85.770142 64.676315,83.700066 
	C63.574810,81.153145 62.679787,79.069778 61.925339,76.680344 
	C62.668098,76.146866 63.270279,75.919456 64.029526,76.023056 
	C66.376991,77.661766 68.567383,78.969475 71.925819,80.974518 
	C71.014198,77.596184 70.554581,75.892921 70.210854,73.792862 
	C70.290268,72.578827 70.253807,71.761581 70.448837,70.712700 
	C71.132484,69.015076 71.584633,67.549095 72.253006,65.918732 
	C72.948418,65.228500 73.427597,64.702629 73.906776,64.176765 
	C74.905769,62.705444 75.904762,61.234123 76.654121,60.130463 
	C78.411858,63.493908 80.172638,66.863190 81.605637,70.603790 
	C79.872581,70.975105 78.467323,70.975105 76.966705,70.975105 
	C78.828674,73.222305 80.420815,75.143837 82.012955,77.065376 
	C80.211060,80.237839 78.409172,83.410309 75.939285,86.795837 
	C73.074371,87.390572 70.877457,87.772247 68.680542,88.153931 
	C68.690384,88.545555 68.700218,88.937187 68.710060,89.328812 
	C70.777458,90.538651 72.844849,91.748489 74.912247,92.958328 
z"/>
<path fill="#FBFCFC" opacity="1.000000" stroke="none" 
	d="
M130.031982,195.058960 
	C126.345779,204.206802 120.921516,208.012390 112.984047,207.019592 
	C104.449005,205.952042 99.637077,200.382080 98.569122,189.409164 
	C103.029427,187.961212 107.045517,186.923798 111.061607,185.886398 
	C111.486107,185.927353 111.910599,185.968307 112.698914,186.364273 
	C113.731743,186.768555 114.400757,186.817841 115.069763,186.867126 
	C116.431236,186.914932 117.792702,186.962738 119.635536,187.416946 
	C123.421928,190.235214 126.726952,192.647095 130.031982,195.058960 
z"/>
<path fill="#D2E8E4" opacity="1.000000" stroke="none" 
	d="
M207.985336,147.964188 
	C191.340912,150.109528 181.748505,134.861252 187.571350,118.569962 
	C188.804184,116.936653 189.774521,115.860298 190.818817,115.179947 
	C190.040146,119.560036 188.023499,123.704872 188.547394,127.498871 
	C190.305511,140.230652 201.494293,145.100250 213.125107,138.964828 
	C224.185776,133.130173 223.746704,122.991539 216.811035,114.436943 
	C211.965103,108.459854 206.298019,107.808296 198.868896,110.984398 
	C196.946487,111.806267 194.841675,112.201424 192.958267,112.477097 
	C205.705826,102.970253 217.483932,105.211769 225.895279,118.403725 
	C226.568710,123.273766 227.242157,128.143814 227.548218,133.598724 
	C219.627106,137.167953 212.911407,141.319656 207.985336,147.964188 
z"/>
<path fill="#0C446D" opacity="1.000000" stroke="none" 
	d="
M163.293396,53.001934 
	C167.092682,47.329597 172.389114,43.354408 179.479752,41.223721 
	C178.040924,45.196957 176.709106,48.874664 175.377289,52.552372 
	C175.771729,52.911007 176.166168,53.269638 176.560608,53.628269 
	C185.803970,46.892250 195.696777,41.771114 207.126801,40.041168 
	C203.366058,44.320400 199.817841,48.357819 196.131287,52.706100 
	C187.860001,55.982578 179.727036,58.948196 171.396347,61.985920 
	C172.257736,60.378426 173.272690,58.484310 174.287659,56.590195 
	C174.108597,56.228287 173.929535,55.866379 173.750473,55.504471 
	C169.357513,57.404518 164.964569,59.304565 160.571625,61.204613 
	C160.258698,61.009190 159.945770,60.813763 159.632858,60.618340 
	C161.172028,58.551434 162.743851,56.506931 164.200790,54.383598 
	C164.349579,54.166729 163.809128,53.476948 163.293396,53.001934 
z"/>
<path fill="#0C446D" opacity="1.000000" stroke="none" 
	d="
M18.003954,231.002991 
	C19.750780,225.762863 21.497608,220.522751 23.454084,214.653717 
	C20.995033,215.143478 19.354303,215.470245 16.140287,216.110367 
	C19.927374,208.750443 23.155622,202.476593 26.383869,196.202744 
	C26.011171,195.762970 25.638474,195.323212 25.265774,194.883438 
	C23.075529,195.746368 20.885283,196.609283 18.695036,197.472198 
	C18.450308,197.238129 18.205582,197.004044 17.960854,196.769958 
	C20.073994,194.539749 22.187134,192.309555 24.642591,190.032715 
	C25.733740,190.439178 26.530523,191.333221 27.221905,191.258041 
	C28.913906,191.074020 30.557224,190.442322 32.610081,189.995392 
	C33.000027,190.000000 33.009132,190.007034 33.009132,190.007034 
	C30.458656,197.858978 27.908184,205.710922 25.434801,213.325516 
	C29.097958,211.707077 33.474773,209.773331 39.205563,207.241379 
	C36.566727,216.344421 29.866369,220.652588 25.361006,226.826874 
	C22.913986,228.219894 20.755455,229.457718 18.298462,230.847778 
	C18.000000,231.000000 18.003954,231.002991 18.003954,231.002991 
z"/>
<path fill="#0C446C" opacity="1.000000" stroke="none" 
	d="
M140.007874,57.849915 
	C137.718262,57.983719 135.612610,57.812286 133.445190,57.175278 
	C132.578369,54.299896 131.773331,51.890091 130.968277,49.480289 
	C130.550552,49.517868 130.132843,49.555450 129.715118,49.593029 
	C128.499527,52.032894 127.283951,54.472759 126.068367,56.912628 
	C124.003471,56.938934 121.938583,56.965244 119.403290,56.662567 
	C118.289314,55.228199 117.645737,54.122822 117.002167,53.017441 
	C122.841476,46.868717 127.864220,39.773598 137.520645,35.346725 
	C134.769928,42.025085 134.444977,47.460037 137.953110,53.207741 
	C143.403229,49.347992 148.648392,45.633396 153.893539,41.918800 
	C154.188736,42.169228 154.483917,42.419659 154.779114,42.670086 
	C154.050903,45.016342 153.322708,47.362595 152.320312,49.861877 
	C149.553955,50.988167 146.882263,51.664898 144.627472,53.030178 
	C142.878845,54.088982 141.651093,56.008015 140.007874,57.849915 
z"/>
<path fill="#D8EEEE" opacity="1.000000" stroke="none" 
	d="
M237.918579,146.057907 
	C238.942505,148.792221 239.966446,151.526520 240.622925,154.804443 
	C234.116867,157.199631 227.886520,158.798248 221.868195,160.981384 
	C216.896942,162.784744 212.964035,166.026611 211.693924,171.594498 
	C210.792206,168.993332 209.890488,166.392166 208.913177,163.398575 
	C209.795288,161.856628 210.552429,160.409500 211.743774,159.606796 
	C218.550735,155.020203 225.460983,150.586945 233.068787,146.018799 
	C235.173798,145.976608 236.546188,146.017258 237.918579,146.057907 
z"/>
<path fill="#D9EFEF" opacity="1.000000" stroke="none" 
	d="
M82.975616,244.557205 
	C83.344696,241.236649 83.799141,238.268021 84.658493,235.457520 
	C90.536667,244.090302 107.742584,249.004608 117.131729,244.774918 
	C117.081070,247.888931 117.030411,251.002945 116.914131,254.547577 
	C104.781227,254.322296 93.693611,250.379059 82.975616,244.557205 
z"/>
<path fill="#0C446D" opacity="1.000000" stroke="none" 
	d="
M284.026794,125.979622 
	C284.026794,127.704666 284.026794,129.429718 284.026794,130.440903 
	C278.642883,129.572220 273.776825,128.787094 268.467285,128.008591 
	C266.217133,125.892929 264.410431,123.770645 262.603760,121.648361 
	C262.769196,121.444626 262.934601,121.240898 263.100037,121.037163 
	C265.156006,122.022133 267.212006,123.007103 269.684021,124.120621 
	C270.175995,124.295044 270.251953,124.340912 270.327881,124.386772 
	C270.218170,124.258255 270.108490,124.129738 269.998779,124.001221 
	C267.934875,121.099823 265.909576,118.169884 263.791840,115.308342 
	C262.625519,113.732407 261.303864,112.271454 259.990356,110.426514 
	C264.050079,111.360374 268.171692,112.626381 272.882416,114.181198 
	C276.989960,118.306541 280.508362,122.143082 284.026794,125.979622 
z"/>
<path fill="#0C446C" opacity="1.000000" stroke="none" 
	d="
M37.137325,138.714935 
	C36.005760,139.014145 35.031361,139.014145 34.056965,139.014145 
	C33.823494,138.621460 33.590019,138.228775 33.356548,137.836090 
	C38.965145,133.589996 44.573738,129.343887 51.540440,124.069603 
	C45.730659,123.383148 40.865490,122.808304 35.333576,122.154678 
	C40.159157,118.779877 44.789799,115.541405 49.731224,112.160721 
	C53.146660,112.555206 56.251316,113.091911 60.039227,113.746727 
	C56.986645,115.456131 54.511837,116.841988 52.037029,118.227844 
	C52.178593,118.671951 52.320160,119.116051 52.461727,119.560158 
	C55.622070,120.162292 58.782413,120.764427 61.408955,121.264854 
	C53.586552,126.828362 45.440525,132.622040 37.137325,138.714935 
z"/>
<path fill="#D7ECEC" opacity="1.000000" stroke="none" 
	d="
M157.552216,253.979202 
	C157.111465,251.905991 157.095200,249.841812 157.673981,247.410553 
	C164.417480,245.410904 170.724792,244.203033 176.654373,241.985214 
	C180.168289,240.670914 183.086075,237.762802 186.271927,235.571350 
	C186.939560,238.304977 187.607193,241.038589 188.624863,243.990356 
	C185.990631,245.640518 183.132675,247.509003 179.996658,248.416779 
	C172.728134,250.520798 165.325165,252.160370 157.552216,253.979202 
z"/>
<path fill="#D8EFEF" opacity="1.000000" stroke="none" 
	d="
M193.389114,242.823715 
	C192.364334,239.871429 191.693039,236.831726 191.519348,233.392334 
	C202.114670,232.635010 209.861740,228.200607 215.215897,219.616165 
	C216.240875,222.010590 217.265854,224.405014 218.628052,226.987366 
	C217.266602,228.663803 215.752335,230.469604 213.835831,231.583206 
	C207.213745,235.431122 200.451508,239.037796 193.389114,242.823715 
z"/>
<path fill="#D6EBEB" opacity="1.000000" stroke="none" 
	d="
M81.342300,231.965393 
	C80.645256,235.382339 79.948204,238.799301 79.103882,242.567841 
	C76.040039,241.294846 72.738976,240.107300 70.289230,237.952087 
	C65.604050,233.830185 61.403278,229.157654 56.923607,224.364807 
	C57.282482,222.033585 57.719219,220.051208 58.541794,218.175293 
	C64.295456,226.289001 71.494934,231.295898 81.342300,231.965393 
z"/>
<path fill="#D7ECEC" opacity="1.000000" stroke="none" 
	d="
M60.395012,175.037949 
	C60.584511,172.709808 60.774010,170.381653 60.907417,167.667084 
	C67.372452,169.513458 73.996559,171.490509 80.381508,174.061508 
	C85.328430,176.053452 89.976326,178.788040 94.875244,181.529877 
	C93.533867,184.776962 92.074409,187.686676 90.279465,190.404205 
	C89.156403,188.828369 88.539581,187.307220 87.553825,186.083176 
	C80.558571,177.396927 71.500839,173.671860 60.395012,175.037949 
z"/>
<path fill="#D8EFEF" opacity="1.000000" stroke="none" 
	d="
M222.435547,224.943970 
	C221.397079,221.551163 220.705383,218.186661 220.431793,214.361328 
	C226.306564,210.025986 231.759842,206.146713 237.221970,202.279922 
	C238.797867,201.164322 240.399170,200.084610 241.988815,198.988434 
	C242.165878,199.004074 242.342941,199.019699 242.760315,199.155457 
	C241.362778,202.373474 240.190811,205.861237 237.991516,208.489319 
	C233.199310,214.215881 227.883926,219.504639 222.435547,224.943970 
z"/>
<path fill="#0D2D42" opacity="1.000000" stroke="none" 
	d="
M225.933136,117.987366 
	C217.483932,105.211769 205.705826,102.970253 192.981537,112.480911 
	C192.867188,112.800217 192.824356,112.791214 192.522598,112.855362 
	C191.731277,113.539719 191.241714,114.159920 190.754181,114.796967 
	C190.756210,114.813805 190.744873,114.783951 190.744873,114.783951 
	C189.774521,115.860298 188.804184,116.936653 187.545776,118.157082 
	C187.899963,116.094933 188.037933,113.543861 189.270554,111.741333 
	C195.038574,103.306435 212.816422,96.633820 222.427795,109.083649 
	C224.237320,111.427597 224.821426,114.717575 225.933136,117.987366 
z"/>
<path fill="#D6EBEB" opacity="1.000000" stroke="none" 
	d="
M121.406631,255.923111 
	C120.985596,253.514114 121.002663,251.169434 121.469986,248.453522 
	C128.305664,252.090912 135.029938,254.112244 142.622757,252.041824 
	C145.947128,251.135330 149.383667,250.640182 152.769257,249.958221 
	C152.852722,251.322556 152.936188,252.686890 153.020752,254.458603 
	C143.664383,256.176178 134.346527,258.315002 124.827812,256.074890 
	C123.879135,255.851624 122.841240,256.007507 121.406631,255.923111 
z"/>
<path fill="#D9EFEF" opacity="1.000000" stroke="none" 
	d="
M177.957275,188.089584 
	C177.235077,186.157639 176.512863,184.225677 175.458679,182.139343 
	C183.583237,177.323578 192.054321,172.688187 200.482117,167.975403 
	C201.894714,167.185455 203.119659,166.059982 204.775818,165.166367 
	C206.071808,167.588974 207.023300,169.934753 207.479538,172.641602 
	C194.745865,173.100937 185.699341,179.340393 177.957275,188.089584 
z"/>
<path fill="#D9EFEF" opacity="1.000000" stroke="none" 
	d="
M173.789230,182.145966 
	C174.359924,185.099274 174.554596,187.890503 174.253296,190.611328 
	C169.299728,189.489182 164.634247,187.053223 160.429489,187.684723 
	C152.584351,188.862946 145.006973,191.824036 137.318161,194.043198 
	C137.134811,192.452347 136.951447,190.861481 136.412567,189.074432 
	C137.052963,188.553528 138.056107,187.926590 139.043716,187.950180 
	C150.902573,188.233627 162.188782,185.302429 173.789230,182.145966 
z"/>
<path fill="#0C446D" opacity="1.000000" stroke="none" 
	d="
M31.283117,171.804138 
	C28.901340,171.824036 26.782541,171.642166 23.827250,171.388519 
	C26.975124,167.228165 29.857944,163.418121 32.881592,159.296570 
	C36.776489,158.985062 40.530567,158.985062 45.275810,158.985062 
	C40.104324,163.737549 35.825211,167.669983 31.283117,171.804138 
z"/>
<path fill="#0D446C" opacity="1.000000" stroke="none" 
	d="
M218.992371,73.411659 
	C225.274963,74.677193 231.614594,76.268433 238.579819,78.115524 
	C240.315796,79.281219 242.504822,80.190407 239.207108,81.102959 
	C235.000305,81.551414 230.793518,81.999870 226.288193,82.726898 
	C223.778580,82.080177 220.993317,81.916008 222.005295,77.999664 
	C222.287766,76.906494 220.102554,75.175667 218.992371,73.411659 
z"/>
<path fill="#0D3147" opacity="1.000000" stroke="none" 
	d="
M207.938293,148.333313 
	C212.911407,141.319656 219.627106,137.167953 227.502686,134.045288 
	C231.462692,133.636551 235.100845,133.366089 238.738983,133.095627 
	C226.241867,137.024780 215.539124,142.617493 207.414764,153.518295 
	C207.551605,152.135254 207.721420,150.418839 207.938293,148.333313 
z"/>
<path fill="#0C446D" opacity="1.000000" stroke="none" 
	d="
M213.779510,57.234634 
	C219.530151,58.435051 223.304688,61.861801 226.618347,67.412102 
	C223.719696,67.237282 221.737335,67.117722 219.348297,66.995529 
	C213.752441,64.076683 208.563263,61.160469 203.437653,58.279984 
	C206.574570,58.040771 210.021423,57.777927 213.779510,57.234634 
z"/>
<path fill="#0C446D" opacity="1.000000" stroke="none" 
	d="
M18.998436,242.998962 
	C20.800579,238.489655 22.602718,233.980347 24.681206,229.231598 
	C31.850151,229.059738 32.756618,231.648911 28.363129,239.809830 
	C25.281473,240.994904 22.516956,241.995621 19.376219,242.998169 
	C19.000000,243.000000 18.998436,242.998962 18.998436,242.998962 
z"/>
<path fill="#0C446C" opacity="1.000000" stroke="none" 
	d="
M239.000473,97.418938 
	C245.955826,98.399689 252.570267,100.490517 257.830994,106.771553 
	C254.966141,106.461044 252.866013,106.233421 250.360992,106.005035 
	C243.196426,107.390526 241.664062,101.869545 239.000473,97.418938 
z"/>
<path fill="#D9EEEE" opacity="1.000000" stroke="none" 
	d="
M110.877884,185.534119 
	C107.045517,186.923798 103.029427,187.961212 98.615463,189.017517 
	C98.131004,187.069000 98.044418,185.101593 97.884331,182.734924 
	C102.105270,183.284409 106.399712,184.233124 110.877884,185.534119 
z"/>
<path fill="#D9EEEE" opacity="1.000000" stroke="none" 
	d="
M130.389877,194.872147 
	C126.726952,192.647095 123.421928,190.235214 120.038193,187.488892 
	C123.558250,187.528351 127.157013,187.902252 130.961426,188.655075 
	C131.027313,190.917770 130.887543,192.801544 130.389877,194.872147 
z"/>
<path fill="#0D6B96" opacity="1.000000" stroke="none" 
	d="
M238.353195,145.969818 
	C236.546188,146.017258 235.173798,145.976608 233.394684,145.865601 
	C238.151093,142.950287 244.354797,143.219498 247.912323,146.835724 
	C244.892654,146.780594 241.840225,146.331161 238.353195,145.969818 
z"/>
<path fill="#0A3756" opacity="1.000000" stroke="none" 
	d="
M151.716522,52.225338 
	C152.324860,53.369049 152.661285,54.744274 152.992096,56.489677 
	C152.508347,57.622253 152.030228,58.384659 151.552109,59.147064 
	C150.998734,58.861740 150.445374,58.576420 149.892014,58.291096 
	C150.409546,56.346348 150.927078,54.401600 151.716522,52.225338 
z"/>
<path fill="#D9EEEE" opacity="1.000000" stroke="none" 
	d="
M114.946686,186.563400 
	C114.400757,186.817841 113.731743,186.768555 113.010582,186.437347 
	C113.580154,186.190155 114.201889,186.224915 114.946686,186.563400 
z"/>
<path fill="#0C446D" opacity="1.000000" stroke="none" 
	d="
M248.471680,210.459290 
	C248.519470,210.431915 248.423889,210.486649 248.471680,210.459290 
z"/>
<path fill="#0C446D" opacity="1.000000" stroke="none" 
	d="
M32.996578,189.995422 
	C33.082352,189.961441 33.171574,189.932007 33.134964,189.954803 
	C33.009132,190.007034 33.000027,190.000000 32.996578,189.995422 
z"/>
<path fill="#F48B22" opacity="1.000000" stroke="none" 
	d="
M245.087234,74.974075 
	C243.528488,72.590050 238.729553,72.112503 240.962509,67.177223 
	C237.223419,67.177223 233.667419,67.177223 230.111420,67.177223 
	C230.027512,66.752388 229.943619,66.327545 229.859711,65.902710 
	C233.818024,64.889023 237.776337,63.875336 242.754089,62.600578 
	C236.618317,60.634430 231.442337,58.975830 227.090652,57.581379 
	C231.704727,55.474533 236.223892,53.411018 241.079285,51.111458 
	C258.673859,42.640408 269.783661,28.473230 278.811493,12.253681 
	C279.956818,10.195977 281.606995,8.419253 283.023254,6.512352 
	C284.699280,8.610657 287.244141,10.474607 287.885376,12.852017 
	C289.678528,19.499899 290.684296,26.360144 291.671448,33.823807 
	C283.890015,57.105179 267.064636,68.984383 245.087234,74.974075 
M262.975281,46.558086 
	C272.704041,40.230450 279.237305,31.817583 280.316498,19.821665 
	C275.521332,31.047157 267.871124,40.037285 258.818054,48.251343 
	C259.999542,47.814964 261.181061,47.378586 262.975281,46.558086 
z"/>
<path fill="#F48A21" opacity="1.000000" stroke="none" 
	d="
M73.541328,64.086227 
	C73.427597,64.702629 72.948418,65.228500 71.873413,65.925171 
	C69.098335,66.750519 66.919083,67.405060 63.908585,68.309258 
	C66.642433,69.451149 68.429886,70.197746 70.217346,70.944336 
	C70.253807,71.761581 70.290268,72.578827 69.909317,73.823624 
	C68.895302,74.310745 68.298706,74.370323 67.285049,74.303894 
	C65.434868,73.765823 64.011993,73.313217 62.567001,72.948120 
	C50.894642,69.998886 40.608212,64.410614 31.812836,56.257233 
	C18.090338,43.536373 12.760504,27.192543 12.001409,8.984445 
	C15.049739,5.063716 16.962408,6.518074 18.785418,10.211762 
	C26.346292,25.531231 36.585060,38.610424 51.208595,47.823986 
	C54.559307,49.935108 58.262844,51.486233 62.052650,53.553673 
	C59.063713,53.513470 55.826130,53.214672 51.789272,52.842110 
	C58.233025,59.092453 65.399208,62.126659 73.541328,64.086227 
z"/>
<path fill="#F37221" opacity="1.000000" stroke="none" 
	d="
M11.671850,9.141746 
	C12.760504,27.192543 18.090338,43.536373 31.812836,56.257233 
	C40.608212,64.410614 50.894642,69.998886 62.567001,72.948120 
	C64.011993,73.313217 65.434868,73.765823 66.983055,74.473885 
	C66.022903,75.077271 64.947678,75.384666 63.872459,75.692062 
	C63.270279,75.919456 62.668098,76.146866 61.504829,76.685226 
	C55.697750,75.637733 50.173912,74.923828 45.256111,72.803993 
	C28.226841,65.463478 14.433020,54.627277 8.516444,36.051243 
	C7.769403,33.705784 6.953719,31.382187 6.169838,29.048462 
	C7.893990,22.465324 9.618140,15.882185 11.671850,9.141746 
z"/>
<path fill="#F05622" opacity="1.000000" stroke="none" 
	d="
M6.103844,29.497189 
	C6.953719,31.382187 7.769403,33.705784 8.516444,36.051243 
	C14.433020,54.627277 28.226841,65.463478 45.256111,72.803993 
	C50.173912,74.923828 55.697750,75.637733 61.364254,76.991302 
	C62.679787,79.069778 63.574810,81.153145 64.344254,83.623795 
	C56.644325,90.144783 49.850811,84.795433 42.555450,82.379372 
	C27.064346,75.349426 15.210954,64.880707 9.240450,49.113300 
	C6.990652,43.171848 7.037804,36.360634 6.103844,29.497189 
z"/>
<path fill="#F27221" opacity="1.000000" stroke="none" 
	d="
M245.134796,75.284042 
	C267.064636,68.984383 283.890015,57.105179 291.592224,34.273994 
	C292.694977,45.904140 287.527374,55.608807 280.153595,64.120811 
	C276.136871,68.757599 270.900665,72.338013 266.038025,76.696739 
	C258.329559,80.552986 250.797501,84.107361 243.104401,87.737732 
	C241.553253,85.282822 240.440826,83.522217 239.267746,81.432281 
	C242.504822,80.190407 240.315796,79.281219 238.924911,78.183739 
	C240.823715,77.195404 243.003036,76.394707 245.134796,75.284042 
z"/>
<path fill="#0A3756" opacity="1.000000" stroke="none" 
	d="
M107.697556,30.735241 
	C107.390160,30.831877 107.243797,30.678562 107.077271,30.338051 
	C107.396210,30.031445 107.663368,30.142923 107.697556,30.735241 
z"/>
<path fill="#0A3756" opacity="1.000000" stroke="none" 
	d="
M80.616257,27.629070 
	C80.962173,27.835077 80.973602,28.117233 80.991570,28.823341 
	C80.759331,28.733269 80.520554,28.219244 80.616257,27.629070 
z"/>
<path fill="#06253A" opacity="1.000000" stroke="none" 
	d="
M48.667427,100.000565 
	C49.038830,99.938751 49.516361,99.978165 49.717972,100.341003 
	C48.438332,101.891106 46.895485,103.010674 45.494171,104.285797 
	C44.240910,105.426216 43.143730,106.738167 41.977676,107.974442 
	C41.977676,107.974434 41.986851,107.987915 41.979698,107.981918 
	C38.009373,110.458031 33.878353,112.715782 30.146767,115.507446 
	C27.952486,117.149040 26.392841,119.638939 23.807581,122.593086 
	C23.337206,120.279221 23.134493,119.282028 22.865973,117.922409 
	C22.869665,116.628700 22.939165,115.697426 22.985626,114.414581 
	C31.407064,109.396126 39.851543,104.729248 48.667427,100.000565 
z"/>
<path fill="#0C446D" opacity="1.000000" stroke="none" 
	d="
M16.634150,199.771454 
	C16.670086,199.805023 16.598213,199.737869 16.634150,199.771454 
z"/>
<path fill="#0C446D" opacity="1.000000" stroke="none" 
	d="
M19.000877,243.000916 
	C18.884756,243.409668 18.767756,243.817490 18.650753,244.225327 
	C18.638664,243.898117 18.626575,243.570892 18.806461,243.121323 
	C18.998436,242.998962 19.000000,243.000000 19.000877,243.000916 
z"/>
<path fill="#0C446D" opacity="1.000000" stroke="none" 
	d="
M16.475040,217.454361 
	C16.521584,217.427673 16.428495,217.481049 16.475040,217.454361 
z"/>
<path fill="#0C446D" opacity="1.000000" stroke="none" 
	d="
M17.998514,230.998047 
	C17.916536,231.031189 17.836046,231.066299 17.879755,231.052185 
	C18.003954,231.002991 18.000000,231.000000 17.998514,230.998047 
z"/>
<path fill="#083756" opacity="1.000000" stroke="none" 
	d="
M276.464111,155.523743 
	C276.439117,155.478745 276.489136,155.568741 276.464111,155.523743 
z"/>
<path fill="#06253B" opacity="1.000000" stroke="none" 
	d="
M284.327271,126.145691 
	C280.508362,122.143082 276.989960,118.306541 273.257385,114.213120 
	C270.766022,110.504501 268.488800,107.052773 265.795502,102.970428 
	C273.030457,103.550911 278.385468,107.375832 283.805786,111.898827 
	C286.639984,115.480385 289.164307,118.911034 291.877075,122.966644 
	C292.713776,124.043076 293.362061,124.494545 294.010345,124.946014 
	C294.010345,124.946014 294.034180,124.966324 294.049744,124.972366 
	C294.209381,130.262085 293.024597,131.036926 288.295074,128.639175 
	C287.009674,127.987511 285.846863,127.094170 284.327271,126.145691 
z"/>
<path fill="#095881" opacity="1.000000" stroke="none" 
	d="
M28.999067,243.998779 
	C28.916639,244.033279 28.835144,244.069000 28.878000,244.053253 
	C29.002352,244.001770 29.000000,244.000000 28.999067,243.998779 
z"/>
<path fill="#083756" opacity="1.000000" stroke="none" 
	d="
M293.966675,124.644699 
	C293.362061,124.494545 292.713776,124.043076 292.041382,123.257629 
	C292.652496,123.396889 293.287781,123.870125 293.966675,124.644699 
z"/>
<path fill="#FCFCFC" opacity="1.000000" stroke="none" 
	d="
M152.810822,249.523224 
	C149.383667,250.640182 145.947128,251.135330 142.622757,252.041824 
	C135.029938,254.112244 128.305664,252.090912 121.577759,248.022247 
	C121.864563,244.048569 122.063690,240.003220 123.212982,236.248749 
	C125.584152,228.502548 132.637680,224.248596 140.532455,225.239639 
	C147.398056,226.101486 151.188599,230.596649 152.128098,239.178894 
	C152.488266,242.468994 152.617752,245.784348 152.810822,249.523224 
z"/>
<path fill="#FCFDFD" opacity="1.000000" stroke="none" 
	d="
M117.154480,244.324966 
	C107.742584,249.004608 90.536667,244.090302 85.010361,235.265991 
	C89.081886,224.265640 95.331932,220.261185 105.275093,221.898590 
	C112.734909,223.127045 116.536682,227.316940 116.979607,234.951492 
	C117.151825,237.919830 117.117493,240.900146 117.154480,244.324966 
z"/>
<path fill="#FBFCFC" opacity="1.000000" stroke="none" 
	d="
M211.829590,171.892059 
	C212.964035,166.026611 216.896942,162.784744 221.868195,160.981384 
	C227.886520,158.798248 234.116867,157.199631 240.599487,155.190506 
	C243.725754,160.749084 243.357285,166.530838 241.191528,172.298691 
	C238.999603,178.136215 235.098495,182.112411 228.674774,182.940460 
	C222.185074,183.776993 217.549240,180.713196 214.034149,175.559769 
	C213.292221,174.472061 212.652206,173.314819 211.829590,171.892059 
z"/>
<path fill="#FBFCFC" opacity="1.000000" stroke="none" 
	d="
M178.035980,188.425232 
	C185.699341,179.340393 194.745865,173.100937 207.415985,173.008606 
	C207.866959,178.049088 208.716370,183.258804 207.700378,188.074982 
	C206.358124,194.437698 201.932343,198.792267 195.101547,199.787399 
	C188.384995,200.765869 183.729874,197.404037 180.112091,192.173965 
	C179.364349,191.092972 178.776321,189.901474 178.035980,188.425232 
z"/>
<path fill="#FCFCFC" opacity="1.000000" stroke="none" 
	d="
M186.237061,235.201935 
	C183.086075,237.762802 180.168289,240.670914 176.654373,241.985214 
	C170.724792,244.203033 164.417480,245.410904 157.800537,247.056580 
	C158.118011,241.365768 158.283951,235.484695 159.850082,230.003708 
	C161.721603,223.454025 167.231705,219.882538 173.179169,219.957397 
	C179.628265,220.038544 182.274551,224.651459 184.501480,229.646652 
	C185.238342,231.299515 185.644699,233.099716 186.237061,235.201935 
z"/>
<path fill="#FCFCFC" opacity="1.000000" stroke="none" 
	d="
M137.398956,194.371979 
	C145.006973,191.824036 152.584351,188.862946 160.429489,187.684723 
	C164.634247,187.053223 169.299728,189.489182 173.937820,190.867584 
	C172.019638,200.885315 165.726242,206.997131 156.869339,207.945572 
	C147.187515,208.982330 142.272919,205.625244 137.398956,194.371979 
z"/>
<path fill="#FCFCFC" opacity="1.000000" stroke="none" 
	d="
M60.351303,175.471771 
	C71.500839,173.671860 80.558571,177.396927 87.553825,186.083176 
	C88.539581,187.307220 89.156403,188.828369 89.966118,190.570648 
	C85.979958,196.673767 80.619995,199.983658 73.535934,198.457474 
	C66.125252,196.860901 62.016876,191.648178 60.794357,184.284561 
	C60.338749,181.540268 60.453121,178.701355 60.351303,175.471771 
z"/>
<path fill="#FCFCFC" opacity="1.000000" stroke="none" 
	d="
M215.144470,219.284912 
	C209.861740,228.200607 202.114670,232.635010 191.594452,232.985596 
	C191.171738,229.033173 190.648499,224.999756 191.294296,221.163116 
	C192.253342,215.465530 195.423050,211.039108 201.485794,209.733078 
	C207.590561,208.417969 210.877930,212.462601 213.866089,216.809784 
	C214.328781,217.482910 214.673660,218.237000 215.144470,219.284912 
z"/>
<path fill="#FCFCFC" opacity="1.000000" stroke="none" 
	d="
M81.443604,231.526825 
	C71.494934,231.295898 64.295456,226.289001 58.830711,217.915405 
	C61.275238,211.206100 65.263275,208.621552 71.638672,209.185730 
	C76.521477,209.617828 79.900101,212.962418 80.924049,219.251984 
	C81.555130,223.128357 81.365860,227.138290 81.443604,231.526825 
z"/>
<path fill="#FAFBFB" opacity="1.000000" stroke="none" 
	d="
M241.835617,198.683273 
	C240.399170,200.084610 238.797867,201.164322 237.221970,202.279922 
	C231.759842,206.146713 226.306564,210.025986 220.503174,213.944901 
	C219.176102,207.262711 220.004807,201.112762 225.887558,196.683105 
	C231.305740,192.603271 235.882706,193.125214 241.835617,198.683273 
z"/>
<path fill="#0C446C" opacity="1.000000" stroke="none" 
	d="
M109.071480,59.074413 
	C106.313354,60.360584 103.555229,61.646759 100.103424,62.835823 
	C95.924271,61.472580 92.438797,60.206444 88.953323,58.940308 
	C90.257637,52.748425 93.656738,47.861706 97.618706,43.961441 
	C100.663445,48.708473 103.552345,53.212536 107.008560,57.979992 
	C108.074409,58.520393 108.572945,58.797401 109.071480,59.074413 
z"/>
<path fill="#08557E" opacity="1.000000" stroke="none" 
	d="
M109.450562,59.004608 
	C108.572945,58.797401 108.074409,58.520393 107.318787,58.125862 
	C107.061707,55.236004 107.061707,52.463665 107.061707,48.311867 
	C110.723892,50.138756 113.508759,51.527988 116.647896,52.967331 
	C117.645737,54.122822 118.289314,55.228199 118.961067,56.655174 
	C115.936050,57.629444 112.882843,58.282124 109.450562,59.004608 
z"/>
<path fill="#08567F" opacity="1.000000" stroke="none" 
	d="
M88.619202,58.951729 
	C92.438797,60.206444 95.924271,61.472580 99.750824,62.884239 
	C97.624763,64.657906 95.157616,66.286057 92.311172,67.623978 
	C90.315186,65.870644 88.698479,64.407524 87.081779,62.944408 
	C86.656586,61.891502 86.231392,60.838593 85.641235,59.377197 
	C86.570930,59.231598 87.428001,59.097374 88.619202,58.951729 
z"/>
<path fill="#08547D" opacity="1.000000" stroke="none" 
	d="
M82.307053,76.910583 
	C80.420815,75.143837 78.828674,73.222305 76.966705,70.975105 
	C78.467323,70.975105 79.872581,70.975105 81.665726,70.953751 
	C83.423088,70.954262 84.792564,70.976128 86.785332,71.107124 
	C87.674210,71.413879 87.864563,71.667877 87.979691,71.978249 
	C86.186844,73.570755 84.393997,75.163269 82.307053,76.910583 
z"/>
<path fill="#0C446C" opacity="1.000000" stroke="none" 
	d="
M88.270065,71.845993 
	C87.864563,71.667877 87.674210,71.413879 87.197449,71.099297 
	C87.000237,68.602509 87.014206,66.222672 87.054977,63.393623 
	C88.698479,64.407524 90.315186,65.870644 91.967445,67.678841 
	C90.855484,69.253860 89.707962,70.483795 88.270065,71.845993 
z"/>
<path fill="#D6EEF3" opacity="1.000000" stroke="none" 
	d="
M232.234344,50.211716 
	C232.079330,50.457180 231.826401,50.615219 231.573456,50.773254 
	C231.538452,50.526283 231.503433,50.279320 231.705566,49.989723 
	C231.942688,49.947094 232.136429,50.124287 232.234344,50.211716 
z"/>
<path fill="#0C446C" opacity="1.000000" stroke="none" 
	d="
M156.521301,41.539917 
	C156.474731,41.565315 156.567856,41.514519 156.521301,41.539917 
z"/>
<path fill="#0C446C" opacity="1.000000" stroke="none" 
	d="
M138.538803,35.473282 
	C138.566086,35.521214 138.511520,35.425354 138.538803,35.473282 
z"/>
<path fill="#0A3756" opacity="1.000000" stroke="none" 
	d="
M140.523132,34.537949 
	C140.478973,34.562031 140.567291,34.513866 140.523132,34.537949 
z"/>
<path fill="#FFFEFE" opacity="1.000000" stroke="none" 
	d="
M86.077240,96.340523 
	C92.362549,73.493484 114.395058,65.352417 134.706528,68.431656 
	C147.740295,70.407593 158.827026,76.197784 165.990631,87.611412 
	C175.175400,102.245331 176.211853,123.904549 164.457901,135.503464 
	C149.399734,150.363007 133.163757,155.023636 111.969582,148.153534 
	C89.958916,141.018753 81.879631,114.071823 86.077240,96.340523 
M137.034958,109.953674 
	C135.268814,112.344650 133.502670,114.735619 130.903351,117.166443 
	C128.382706,117.012764 125.862068,116.859085 123.330551,116.704750 
	C124.230942,128.269547 132.604004,135.464798 142.899460,133.638367 
	C153.333862,131.787277 159.086304,123.503502 156.675949,113.799606 
	C154.255600,104.055466 143.738327,98.924667 133.703522,102.346436 
	C134.849411,104.630363 136.007004,106.937645 137.034958,109.953674 
z"/>
<path fill="#08567F" opacity="1.000000" stroke="none" 
	d="
M126.493965,56.941734 
	C127.283951,54.472759 128.499527,52.032894 129.715118,49.593029 
	C130.132843,49.555450 130.550552,49.517868 130.968277,49.480289 
	C131.773331,51.890091 132.578369,54.299896 133.133514,56.936035 
	C130.895584,57.098522 128.907578,57.034679 126.493965,56.941734 
z"/>
<path fill="#09547D" opacity="1.000000" stroke="none" 
	d="
M74.951950,92.580490 
	C72.844849,91.748489 70.777458,90.538651 68.710060,89.328812 
	C68.700218,88.937187 68.690384,88.545555 68.680542,88.153931 
	C70.877457,87.772247 73.074371,87.390572 75.682060,87.012413 
	C75.725769,88.744835 75.358711,90.473740 74.951950,92.580490 
z"/>
<path fill="#1B3C52" opacity="1.000000" stroke="none" 
	d="
M64.029526,76.023064 
	C64.947678,75.384666 66.022903,75.077271 67.400116,74.599884 
	C68.298706,74.370323 68.895302,74.310745 69.793427,74.220413 
	C70.554581,75.892921 71.014198,77.596184 71.925819,80.974518 
	C68.567383,78.969475 66.376991,77.661766 64.029526,76.023064 
z"/>
<path fill="#083655" opacity="1.000000" stroke="none" 
	d="
M42.334373,107.941422 
	C43.143730,106.738167 44.240910,105.426216 45.494171,104.285797 
	C46.895485,103.010674 48.438332,101.891106 49.957199,100.354034 
	C51.188435,100.444572 52.382061,100.884933 54.683006,101.733803 
	C50.063866,104.112175 46.377464,106.010284 42.334373,107.941422 
z"/>
<path fill="#1B3C52" opacity="1.000000" stroke="none" 
	d="
M70.448837,70.712700 
	C68.429886,70.197746 66.642433,69.451149 63.908585,68.309258 
	C66.919083,67.405060 69.098335,66.750519 71.657188,66.089539 
	C71.584633,67.549095 71.132484,69.015076 70.448837,70.712700 
z"/>
<path fill="#FDFBFB" opacity="1.000000" stroke="none" 
	d="
M192.843918,112.796402 
	C194.841675,112.201424 196.946487,111.806267 198.868896,110.984398 
	C206.298019,107.808296 211.965103,108.459854 216.811035,114.436943 
	C223.746704,122.991539 224.185776,133.130173 213.125107,138.964828 
	C201.494293,145.100250 190.305511,140.230652 188.547394,127.498871 
	C188.023499,123.704872 190.040146,119.560036 190.818817,115.179947 
	C190.744873,114.783951 190.756210,114.813805 191.107483,114.824532 
	C191.913956,114.153908 192.369156,113.472565 192.824356,112.791214 
	C192.824356,112.791214 192.867188,112.800217 192.843918,112.796402 
M201.426376,119.628853 
	C201.841217,118.429626 202.256073,117.230400 202.807312,115.636932 
	C197.880432,115.223389 194.006653,116.214676 191.702499,120.685883 
	C189.892838,124.197571 190.971725,129.958328 193.875763,132.717102 
	C197.064545,135.746368 202.795563,136.343216 206.884384,134.019272 
	C210.672531,131.866211 212.466309,128.805771 211.396164,124.268188 
	C209.676453,124.881355 208.271362,125.382339 206.169769,125.581383 
	C204.477127,123.800674 202.784485,122.019974 201.426376,119.628853 
z"/>
<path fill="#095881" opacity="1.000000" stroke="none" 
	d="
M269.999390,124.000610 
	C270.108490,124.129738 270.218170,124.258255 270.327881,124.386772 
	C270.251953,124.340912 270.175995,124.295044 270.050659,124.123810 
	C270.001221,123.998436 270.000000,124.000000 269.999390,124.000610 
z"/>
<path fill="#D2E8E4" opacity="1.000000" stroke="none" 
	d="
M192.522598,112.855362 
	C192.369156,113.472565 191.913956,114.153908 191.105469,114.807693 
	C191.241714,114.159920 191.731277,113.539719 192.522598,112.855362 
z"/>
<path fill="#FEF3E7" opacity="1.000000" stroke="none" 
	d="
M262.668915,46.750145 
	C261.181061,47.378586 259.999542,47.814964 258.818054,48.251343 
	C267.871124,40.037285 275.521332,31.047157 280.316498,19.821665 
	C279.237305,31.817583 272.704041,40.230450 262.668915,46.750145 
z"/>
<path fill="#CD3D2E" opacity="1.000000" stroke="none" 
	d="
M137.164612,109.244934 
	C136.007004,106.937645 134.849411,104.630363 133.703522,102.346436 
	C143.738327,98.924667 154.255600,104.055466 156.675949,113.799606 
	C159.086304,123.503502 153.333862,131.787277 142.899460,133.638367 
	C132.604004,135.464798 124.230942,128.269547 123.330551,116.704750 
	C125.862068,116.859085 128.382706,117.012764 131.360352,117.528717 
	C132.947388,123.608185 136.274750,126.433311 141.232285,125.884842 
	C145.421188,125.421402 149.062622,121.460350 148.914810,117.527969 
	C148.727921,112.556023 144.828690,109.179482 139.147675,109.094704 
	C138.487549,109.084854 137.825668,109.192009 137.164612,109.244934 
z"/>
<path fill="#531A23" opacity="1.000000" stroke="none" 
	d="
M137.099792,109.599304 
	C137.825668,109.192009 138.487549,109.084854 139.147675,109.094704 
	C144.828690,109.179482 148.727921,112.556023 148.914810,117.527969 
	C149.062622,121.460350 145.421188,125.421402 141.232285,125.884842 
	C136.274750,126.433311 132.947388,123.608185 131.776947,117.508789 
	C133.502670,114.735619 135.268814,112.344650 137.099792,109.599304 
z"/>
<path fill="#CE4031" opacity="1.000000" stroke="none" 
	d="
M206.866287,125.883324 
	C208.271362,125.382339 209.676453,124.881355 211.396164,124.268188 
	C212.466309,128.805771 210.672531,131.866211 206.884384,134.019272 
	C202.795563,136.343216 197.064545,135.746368 193.875763,132.717102 
	C190.971725,129.958328 189.892838,124.197571 191.702499,120.685883 
	C194.006653,116.214676 197.880432,115.223389 202.807312,115.636932 
	C202.256073,117.230400 201.841217,118.429626 200.884583,119.905716 
	C197.079926,120.876793 195.026184,122.889206 196.146332,126.143570 
	C196.785202,127.999718 198.856537,130.316940 200.602509,130.627075 
	C203.659607,131.170151 206.431610,129.653900 206.866287,125.883324 
z"/>
<path fill="#561B24" opacity="1.000000" stroke="none" 
	d="
M206.518036,125.732353 
	C206.431610,129.653900 203.659607,131.170151 200.602509,130.627075 
	C198.856537,130.316940 196.785202,127.999718 196.146332,126.143570 
	C195.026184,122.889206 197.079926,120.876793 200.717316,120.210922 
	C202.784485,122.019974 204.477127,123.800674 206.518036,125.732353 
z"/>
</svg>